<?xml version="1.0" standalone="no"?>
<!DOCTYPE svg PUBLIC "-//W3C//DTD SVG 1.1//EN" "http://www.w3.org/Graphics/SVG/1.1/DTD/svg11.dtd" >
<!--
2013-9-30: Created.
-->
<svg>
<metadata>
Created by iconfont
</metadata>
<defs>

<font id="iconfont" horiz-adv-x="1024" >
  <font-face
    font-family="iconfont"
    font-weight="500"
    font-stretch="normal"
    units-per-em="1024"
    ascent="896"
    descent="-128"
  />
    <missing-glyph />
    
    <glyph glyph-name="date" unicode="&#59963;" d="M272 288h160c26.51136 0 48 21.48864 48 48S458.51136 384 432 384h-160c-26.51136 0-48-21.48864-48-48s21.48864-48 48-48zM592 288h160c26.51136 0 48 21.48864 48 48S778.51136 384 752 384h-160c-26.51136 0-48-21.48864-48-48s21.48864-48 48-48zM272 128h160c26.51136 0 48 21.48864 48 48s-21.48864 48-48 48h-160c-26.51136 0-48-21.48864-48-48S245.48864 128 272 128zM592 128h160c26.51136 0 48 21.48864 48 48s-21.48864 48-48 48h-160c-26.51136 0-48-21.48864-48-48s21.48864-48 48-48zM304 608a48 48 0 0 1 48 48v128c0 26.51136-21.48864 48-48 48S256 810.51136 256 784v-128a48 48 0 0 1 48-48zM720 608A48 48 0 0 1 768 656v128c0 26.51136-21.48864 48-48 48s-48-21.48864-48-48v-128a48 48 0 0 1 48-48zM896 736h-96v-80c0-44.18048-35.8144-80-80-80S640 611.81952 640 656V736H384v-80C384 611.81952 348.1856 576 304 576S224 611.81952 224 656V736H128c-35.34336 0-64-28.65664-64-64V0c0-35.34336 28.65664-64 64-64h768c35.34336 0 64 28.65664 64 64V672c0 35.34336-28.65664 64-64 64zM896 0H128V512h768v-512z"  horiz-adv-x="1024" />

    
    <glyph glyph-name="toright" unicode="&#59962;" d="M960 384L768 576v-128H64v-128H768v-128z"  horiz-adv-x="1024" />

    
    <glyph glyph-name="closedline" unicode="&#59961;" d="M740.83328 698.22464L514.56 471.95136 288.28672 698.22464 197.77536 607.71328 424.04864 381.44l-226.27328-226.27328 90.51136-90.51136 226.27328 226.27328 226.27328-226.27328 90.51136 90.51136-226.27328 226.27328 226.27328 226.27328-90.51136 90.51136z"  horiz-adv-x="1024" />

    
    <glyph glyph-name="more" unicode="&#59960;" d="M352 384m-96 0a96 96 0 1 1 192 0 96 96 0 1 1-192 0ZM672 384m-96 0a96 96 0 1 1 192 0 96 96 0 1 1-192 0Z"  horiz-adv-x="1024" />

    
    <glyph glyph-name="plus" unicode="&#59959;" d="M898.56 445.44H578.56V765.44H450.56V445.44H130.56v-128H450.56v-320h128V317.44h320z"  horiz-adv-x="1024" />

    
    <glyph glyph-name="closed" unicode="&#59958;" d="M514.56 829.44C267.14112 829.44 66.56 628.864 66.56 381.44000000000005S267.14112-66.55999999999995 514.56-66.55999999999995s448 200.576 448 448S761.97888 829.44 514.56 829.44z m237.25568-594.74432l-90.51136-90.51136-146.74432 146.74432-146.74432-146.74432-90.51136 90.51136L424.04864 381.44000000000005 277.30432 528.1843200000001l90.51136 90.51136L514.56 471.95136l146.74432 146.74432 90.51136-90.51136-146.74432-146.74432 146.74432-146.74432z"  horiz-adv-x="1024" />

    
    <glyph glyph-name="websiteline" unicode="&#59956;" d="M800 0H224a32 32 0 0 1 0-64h576a32.00512 32.00512 0 0 1 0 64zM864 64H160c-52.93568 0-96 43.06432-96 96V736c0 52.93568 43.06432 96 96 96h704c52.93568 0 96-43.06432 96-96v-576c0-52.93568-43.06432-96-96-96zM160 768A32.03584 32.03584 0 0 1 128 736v-576a32.03584 32.03584 0 0 1 32-32h704a32.03584 32.03584 0 0 1 32 32V736a32.03584 32.03584 0 0 1-32 32H160zM320 576m-96 0a96 96 0 1 1 192 0 96 96 0 1 1-192 0Z"  horiz-adv-x="1024" />

    
    <glyph glyph-name="website" unicode="&#59957;" d="M800 0H224a32 32 0 0 1 0-64h576a32.00512 32.00512 0 0 1 0 64zM864 832H160c-52.93568 0-96-43.06432-96-96v-576c0-52.93568 43.06432-96 96-96h704c52.93568 0 96 43.06432 96 96V736c0 52.93568-43.06432 96-96 96zM320 480c-53.0176 0-96 42.9824-96 96s42.9824 96 96 96 96-42.9824 96-96-42.9824-96-96-96z"  horiz-adv-x="1024" />

    
    <glyph glyph-name="wecardline" unicode="&#59955;" d="M868.57216 832H155.42784c-50.41152 0-91.42784-41.01632-91.42784-91.42784v-713.14432c0-50.41664 41.01632-91.42784 91.42784-91.42784h713.14432c50.41664 0 91.42784 41.01632 91.42784 91.42784V740.57216c0 50.41152-41.01632 91.42784-91.42784 91.42784zM896 27.42784a27.45856 27.45856 0 0 0-27.42784-27.42784H155.42784A27.45856 27.45856 0 0 0 128 27.42784V740.57216A27.45856 27.45856 0 0 0 155.42784 768h713.14432A27.45856 27.45856 0 0 0 896 740.57216v-713.14432zM512 512m-160 0a160 160 0 1 1 320 0 160 160 0 1 1-320 0ZM704 256h-384c-35.33824 0-64-28.66176-64-64S284.66176 128 320 128h384c35.33824 0 64 28.66176 64 64s-28.66176 64-64 64z"  horiz-adv-x="1024" />

    
    <glyph glyph-name="fire" unicode="&#59954;" d="M780.19584 637.32224c-118.73792-35.01568-140.47744-134.26176-132.81792-197.2992-84.70016 102.94272-81.22368 221.36832-81.22368 391.98208-271.66208-105.91232-208.4864-411.26912-216.61184-503.99744-68.3264 57.82528-81.23904 195.98848-81.23904 195.98848-72.13056-38.3744-108.30336-140.86144-108.30336-224 0-201.0368 157.59872-363.99616 352-363.99616 194.4064 0 352 162.95936 352 363.99616 0 119.47008-84.82816 174.58176-83.80416 337.32608z"  horiz-adv-x="1024" />

    
    <glyph glyph-name="heartline" unicode="&#59952;" d="M512 0a32.10752 32.10752 0 0 0-22.32832 8.97536L152.7296 333.36832C95.50848 385.25952 64 452.77184 64 523.52 64 658.3296 175.08864 768 311.63392 768 392.59136 768 466.19136 729.92256 512 667.44832 557.80352 729.92256 631.40352 768 712.3712 768c136.54528 0 247.6288-109.6704 247.6288-244.48 0-73.088-32.55808-144.2048-89.35424-195.18464l-38.07744-36.16256c-26.56256-27.00288-57.9328-56.80128-93.27616-88.576l-205.12256-194.78016A32.12288 32.12288 0 0 0 512 0zM311.63392 704.75264C210.37568 704.75264 128 623.45216 128 523.52c0-52.9408 24.25856-104.01792 68.30592-143.82592l0.73728-0.68608 315.1104-303.3856 183.1168 173.88032 0.64 0.59392c34.66752 31.16032 65.3312 60.26752 91.136 86.528 0.256 0.26112 0.51712 0.51712 0.77824 0.76288l38.80448 36.85888 0.70144 0.65024C870.32832 413.3632 896 468.92544 896 523.52c0 99.93216-82.37568 181.22752-183.6288 181.22752-75.65312 0-142.63808-44.81024-170.6496-114.15552-4.85376-12.01664-16.62464-19.90144-29.7216-19.90144-13.09184 0-24.86272 7.8848-29.7216 19.90144-28.01152 69.3504-94.99648 114.16064-170.64448 114.16064z"  horiz-adv-x="1024" />

    
    <glyph glyph-name="heart" unicode="&#59953;" d="M512 0a32.10752 32.10752 0 0 0-22.32832 8.97536L152.7296 333.36832C95.50848 385.25952 64 452.77184 64 523.52 64 658.3296 175.08864 768 311.63392 768 392.59136 768 466.19136 729.92256 512 667.44832 557.80352 729.92256 631.40352 768 712.3712 768c136.54528 0 247.6288-109.6704 247.6288-244.48 0-73.088-32.55808-144.2048-89.35424-195.18464l-38.07744-36.16256c-26.56256-27.00288-57.9328-56.80128-93.27616-88.576l-205.12256-194.78016A32.12288 32.12288 0 0 0 512 0z"  horiz-adv-x="1024" />

    
    <glyph glyph-name="voice" unicode="&#59951;" d="M664.64256 832L593.2544 760.61696c99.47136-92.18048 162.10944-223.55968 162.10944-369.88928 0-153.60512-68.83328-290.92352-177.04448-383.5136l71.21408-71.21408c126.47424 110.99648 206.71488 273.38752 206.71488 454.87104 0 174.12608-73.91744 330.67008-191.60576 441.12896zM473.856 641.2032L401.82272 569.17504c56.73984-38.9888 94.0032-104.2688 94.0032-178.30912 0-81.55648-45.16864-152.47872-111.83104-189.34272l73.35936-73.344c84.11136 57.06752 139.38688 153.40544 139.38688 262.69184 0.00512 101.87264-48.2304 192.29184-122.88512 250.33216zM255.99488 480c-52.93056 0-95.99488-43.06944-95.99488-96s43.06432-95.99488 95.99488-95.99488c52.93568 0 96.00512 43.06432 96.00512 95.99488s-43.06944 96-96.00512 96z"  horiz-adv-x="1024" />

    
    <glyph glyph-name="share" unicode="&#59948;" d="M800 256c-61.32224 0-114.66752-34.69312-141.5168-85.46304l-150.528 75.25888a224 224 0 0 1 4.0448 42.20416 222.83776 222.83776 0 0 1-44.66688 134.07744l144.07168 144.07168a143.08352 143.08352 0 0 1 76.5952-22.14912c79.40096 0 144 64.59904 144 144S767.40096 832 688 832 544 767.40096 544 688c0-28.13952 8.1408-54.39488 22.14912-76.5952L422.07744 467.33312A222.83776 222.83776 0 0 1 288 512C164.48512 512 64 411.51488 64 288s100.48512-224 224-224c86.32832 0 161.36192 49.12128 198.73792 120.85248l153.7536-76.8768a159.87712 159.87712 0 0 1-0.49664-11.9808c0-88.22272 71.77728-160 160-160s160 71.77728 160 160S888.22272 256 800 256zM688 768C732.1088 768 768 732.11392 768 688s-35.8912-80-80-80-80 35.88608-80 80S643.8912 768 688 768zM288 128C199.77728 128 128 199.77728 128 288S199.77728 448 288 448s160-71.77728 160-160S376.22272 128 288 128z m512-128c-52.93568 0-96 43.06432-96 96s43.06432 96 96 96S896 148.93568 896 96 852.93568 0 800 0z"  horiz-adv-x="1024" />

    
    <glyph glyph-name="save" unicode="&#59949;" d="M864 832H160c-52.93568 0-96-43.06432-96-96v-704c0-52.93568 43.06432-96 96-96h704c52.93568 0 96 43.06432 96 96V736c0 52.93568-43.06432 96-96 96zM704 768v-288a32.03584 32.03584 0 0 0-32-32h-320a32.03584 32.03584 0 0 0-32 32V768h384zM896 32a32.03584 32.03584 0 0 0-32-32H160a32.03584 32.03584 0 0 0-32 32V736A32.03584 32.03584 0 0 0 160 768H256v-288C256 427.06432 299.06432 384 352 384h320c52.93568 0 96 43.06432 96 96V768h96a32.03584 32.03584 0 0 0 32-32v-704zM608 512a32 32 0 0 1 32 32v128a32 32 0 1 1-64 0v-128a32 32 0 0 1 32-32z"  horiz-adv-x="1024" />

    
    <glyph glyph-name="qrcode" unicode="&#59950;" d="M377.6 832H166.4c-56.46336 0-102.4-45.93664-102.4-102.4v-211.2c0-56.46336 45.93664-102.4 102.4-102.4h211.2c56.46336 0 102.4 45.93664 102.4 102.4V729.6c0 56.46336-45.93664 102.4-102.4 102.4z m38.4-313.6c0-21.17632-17.22368-38.4-38.4-38.4H166.4c-21.17632 0-38.4 17.22368-38.4 38.4V729.6c0 21.17632 17.22368 38.4 38.4 38.4h211.2c21.17632 0 38.4-17.22368 38.4-38.4v-211.2zM857.6 832h-211.2c-56.46336 0-102.4-45.93664-102.4-102.4v-211.2c0-56.46336 45.93664-102.4 102.4-102.4h211.2c56.46336 0 102.4 45.93664 102.4 102.4V729.6c0 56.46336-45.93664 102.4-102.4 102.4z m38.4-313.6c0-21.17632-17.22368-38.4-38.4-38.4h-211.2c-21.17632 0-38.4 17.22368-38.4 38.4V729.6c0 21.17632 17.22368 38.4 38.4 38.4h211.2c21.17632 0 38.4-17.22368 38.4-38.4v-211.2zM377.6 352H166.4c-56.46336 0-102.4-45.93664-102.4-102.4v-211.2c0-56.46336 45.93664-102.4 102.4-102.4h211.2c56.46336 0 102.4 45.93664 102.4 102.4v211.2c0 56.46336-45.93664 102.4-102.4 102.4z m38.4-313.6c0-21.17632-17.22368-38.4-38.4-38.4H166.4c-21.17632 0-38.4 17.22368-38.4 38.4v211.2c0 21.17632 17.22368 38.4 38.4 38.4h211.2c21.17632 0 38.4-17.22368 38.4-38.4v-211.2zM640 320c-17.67424 0-32-13.12768-32-29.33248v-88.00256c0-16.19968 14.32576-29.33248 32-29.33248s32 13.12768 32 29.33248v88.00256c0 16.2048-14.32576 29.33248-32 29.33248zM640 144c-17.67424 0-32-13.12768-32-29.33248v-117.32992c0-16.2048 14.32576-29.33248 32-29.33248s32 13.12768 32 29.33248v117.32992c0 16.2048-14.32576 29.33248-32 29.33248zM896 114.66752c-17.67424 0-32-13.12768-32-29.33248v-88.00256c0-16.2048 14.32576-29.33248 32-29.33248s32 13.12768 32 29.33248v88.00256c0 16.19968-14.32576 29.33248-32 29.33248zM896 320c-17.67424 0-32-13.12768-32-29.33248v-117.32992c0-16.2048 14.32576-29.33248 32-29.33248s32 13.12768 32 29.33248v117.32992c0 16.2048-14.32576 29.33248-32 29.33248zM768 114.66752c-17.67424 0-32-13.12768-32-29.33248v-88.00256c0-16.2048 14.32576-29.33248 32-29.33248s32 13.12768 32 29.33248v88.00256c0 16.19968-14.32576 29.33248-32 29.33248zM768 320c-17.67424 0-32-13.12768-32-29.33248v-117.32992c0-16.2048 14.32576-29.33248 32-29.33248s32 13.12768 32 29.33248v117.32992c0 16.2048-14.32576 29.33248-32 29.33248zM320 704H224a32 32 0 0 1-32-32V576a32 32 0 0 1 32-32H320a32 32 0 0 1 32 32V672a32 32 0 0 1-32 32zM800 704H704a32 32 0 0 1-32-32V576a32.00512 32.00512 0 0 1 32-32h96a32.00512 32.00512 0 0 1 32 32V672a32 32 0 0 1-32 32zM320 224H224a32.00512 32.00512 0 0 1-32-32v-96a32.00512 32.00512 0 0 1 32-32H320a32.00512 32.00512 0 0 1 32 32V192a32.00512 32.00512 0 0 1-32 32z"  horiz-adv-x="1024" />

    
    <glyph glyph-name="like" unicode="&#59946;" d="M876.05248 498.82624c-1.60256 0-2.90816-0.04608-3.84512-0.09216h-175.5904c28.58496 127.19616 22.92736 221.19424-16.92672 279.75168-31.81568 46.75072-73.59488 52.77696-78.25408 53.30432a31.6416 31.6416 0 0 1-3.61984 0.20992c-35.5328 0-78.75584-13.41952-82.85184-77.33248l-0.13312-2.15552a31.96416 31.96416 0 0 1-1.3568-9.21088c0-136.89344-147.31264-249.86624-148.76672-250.96704a32.03072 32.03072 0 0 1-12.76416-25.59488v-439.7056c0-64.32768 73.46688-91.02848 112.79872-91.02848h326.656c47.28832 0 74.3936 65.60768 86.48192 105.1904 81.18272 281.12384 82.11968 368.68608 82.11968 372.38272-0.19968 58.88512-42.30656 85.248-83.94752 85.248zM227.88608 512.88576H118.76864c-35.12832 0-54.43072-30.51008-54.7584-59.22304l-0.01024-0.9728 22.52288-455.67488c0.44032-43.78624 33.96608-60.12928 55.14752-60.12928h94.44352c18.35008 0 30.06464 7.936 36.65408 14.59712 13.88544 14.02368 14.82752 31.67744 14.79168 36.49024v458.4448c0 48.768-35.69152 66.46784-59.6736 66.46784z"  horiz-adv-x="1024" />

    
    <glyph glyph-name="likeline" unicode="&#59947;" d="M876.05248 498.82624c-1.60256 0-2.90816-0.04608-3.84512-0.09216h-175.5904c28.58496 127.19616 22.92736 221.19424-16.92672 279.75168-31.81568 46.75072-73.59488 52.77696-78.25408 53.30432a31.6416 31.6416 0 0 1-3.61984 0.20992c-35.5328 0-78.75584-13.41952-82.85184-77.33248l-0.13312-2.15552a31.96416 31.96416 0 0 1-1.3568-9.21088c0-136.89344-147.31264-249.86624-148.76672-250.96704a32.03072 32.03072 0 0 1-12.76416-25.59488v-439.7056c0-64.32768 73.46688-91.02848 112.79872-91.02848h326.656c47.28832 0 74.3936 65.60768 86.48192 105.1904 81.18272 281.12384 82.11968 368.68608 82.11968 372.38272-0.19968 58.88512-42.30656 85.248-83.94752 85.248z m-59.44832-439.5776c-7.56224-24.47872-21.12-51.7632-29.19424-59.24864h-322.6624c-14.11072 0-48.92672 10.77248-48.92672 27.02848V451.42016c40.02304 33.68448 158.86848 145.46432 161.48992 287.11424 0.896 4.18816 1.15712 8.2432 1.39264 12.02688 0.97792 15.2576 1.11104 17.2544 16.37888 17.42336 3.75296-1.04448 18.73408-6.29248 31.84128-25.55392 18.58048-27.30496 43.03872-98.3552-1.90976-267.46368a32.0512 32.0512 0 0 1 5.53472-27.73504 31.93344 31.93344 0 0 1 25.32352-12.49792h217.32864c1.24416 0 0.93696-0.07168 2.19648 0.0768l0.65536 0.01024c20.00384 0 20.0448-12.40576 20.07552-21.12512-0.01024-0.82944-2.04288-86.10816-79.52384-354.44736zM227.88608 512.88576H118.76864c-35.12832 0-54.43072-30.51008-54.7584-59.22304l-0.01024-0.9728 22.52288-455.67488c0.44032-43.78624 33.96608-60.12928 55.14752-60.12928h94.44352c18.35008 0 30.06464 7.936 36.65408 14.59712 13.88544 14.02368 14.82752 31.67744 14.79168 36.49024v458.4448c0 48.768-35.69152 66.46784-59.6736 66.46784z m-4.1984-512H150.28224l-22.144 448h95.44704c0.06144-0.67072 0.1024-1.48992 0.1024-2.46272v-445.53728z"  horiz-adv-x="1024" />

    
    <glyph glyph-name="lockopen" unicode="&#59943;" d="M832 512h-512V671.8208c0 0.26624 0.45056 26.61888 13.45024 51.49184C349.17376 753.3824 376.17664 768 416 768h191.82592c0.26112 0 26.61888-0.45056 51.49184-13.45024 30.06976-15.7184 44.68736-42.72128 44.68736-82.54976v-64H768v64c0 126.56128-104.65792 160-160 160h-192C289.43872 832 256 727.34208 256 672V512H192C156.65664 512 128 483.34848 128 448V0c0-35.34336 28.65664-64 64-64h640c35.34336 0 64 28.65664 64 64V448c0 35.34848-28.65664 64-64 64z"  horiz-adv-x="1024" />

    
    <glyph glyph-name="lock" unicode="&#59944;" d="M832 512H768V672c0 126.56128-104.65792 160-160 160h-192C289.43872 832 256 727.34208 256 672V512H192C156.65664 512 128 483.34848 128 448V0c0-35.34336 28.65664-64 64-64h640c35.34336 0 64 28.65664 64 64V448c0 35.34848-28.65664 64-64 64z m-512 159.8208c0 0.26624 0.45056 26.61888 13.45024 51.49184C349.17376 753.3824 376.17664 768 416 768h191.82592c0.26112 0 26.61888-0.45056 51.49184-13.45024 30.06976-15.7184 44.68736-42.72128 44.68736-82.54976V512h-384V671.8208z"  horiz-adv-x="1024" />

    
    <glyph glyph-name="gou" unicode="&#59945;" d="M416 96a63.8208 63.8208 0 0 0-45.25568 18.74432l-256 256c-24.99072 24.99072-24.99072 65.51552 0 90.51136 24.99584 24.99584 65.51552 24.99584 90.51136 0l210.74432-210.74432 402.74432 402.74432c24.99072 24.99584 65.52064 24.99584 90.51136 0 24.99584-24.99072 24.99584-65.51552 0-90.51136l-448-448a63.8208 63.8208 0 0 0-45.25568-18.74432z"  horiz-adv-x="1024" />

    
    <glyph glyph-name="import" unicode="&#59942;" d="M922.43456 685.9008h-0.03584c-21.3248 20.37248-48.82432 30.848-82.69824 31.49824h-270.5152c-11.81696 0-21.43744 2.62144-28.60032 7.92576-7.19872 5.30944-13.6448 12.68224-19.26144 22.0928l-36.59776 42.2144c-9.41056 11.9296-21.77536 21.7856-37.11488 29.57312-15.36512 7.89504-30.80704 12.09344-46.44864 12.7488h-222.6176c-31.28832-0.6912-57.856-11.43808-79.81056-32.46592-21.87776-20.95616-33.53088-48.32256-34.73408-82.09408v-666.88512c0.61952-31.28832 11.43808-57.86624 32.42496-79.81568 20.95616-21.88288 48.34816-33.53088 82.11968-34.7392h666.91072c31.28832 0.72192 57.89696 11.43808 79.77472 32.43008 21.9136 20.95616 33.5616 48.34816 34.76992 82.12992V609.38752c-3.7888 30.60736-16.26624 56.21248-37.56544 76.51328z m-199.69024-411.15648l-165.48864-165.48864c-24.88832-24.88832-65.61792-24.88832-90.51136 0l-165.48864 165.48864c-24.88832 24.88832-16.45568 45.25568 18.74432 45.25568h96V512c0 35.2 28.8 64 64 64h64c35.2 0 64-28.8 64-64v-192h96c35.2 0 43.63264-20.36736 18.74432-45.25568z"  horiz-adv-x="1024" />

    
    <glyph glyph-name="warning" unicode="&#59940;" d="M512 832c-247.424 0-448-200.576-448-448s200.576-448 448-448c247.41888 0 448 200.576 448 448S759.41888 832 512 832zM448 608c0 35.34848 28.65152 64 64 64 35.34336 0 64-28.65152 64-64v-256c0-35.34336-28.65664-64-64-64-35.34848 0-64 28.65664-64 64v256z m64-524.8c-42.34752 0-76.8 34.45248-76.8 76.8s34.45248 76.8 76.8 76.8 76.8-34.45248 76.8-76.8-34.45248-76.8-76.8-76.8z"  horiz-adv-x="1024" />

    
    <glyph glyph-name="right" unicode="&#59941;" d="M512 832c-247.424 0-448-200.576-448-448s200.576-448 448-448c247.41888 0 448 200.576 448 448S759.41888 832 512 832z m237.25568-397.25568l-242.52416-242.52928a64 64 0 0 0-90.51136 0l-141.47584 141.47584c-24.99072 24.99584-24.99072 65.51552 0 90.51136 24.99584 24.99584 65.51552 24.99584 90.51136 0l96.22016-96.22016 197.26848 197.2736c24.99072 24.99584 65.5104 24.99584 90.51136 0 24.99584-24.99072 24.99584-65.51552 0-90.51136z"  horiz-adv-x="1024" />

    
    <glyph glyph-name="file" unicode="&#59939;" d="M640 512h-64V832H160c-35.2 0-64-28.8-64-64v-768c0-35.2 28.8-64 64-64h704c35.2 0 64 28.8 64 64V496c0 5.07392-0.47104 10.46016-1.26464 16H640zM640 576h264.25344c-6.40512 11.3408-13.73696 21.48352-21.50912 29.25568l-181.48864 181.48864c-14.62272 14.62272-37.632 27.64288-61.25568 35.93216V576z"  horiz-adv-x="1024" />

    
    <glyph glyph-name="sanjiao" unicode="&#59938;" d="M217.6 547.79392c-35.2 0-43.63264-20.36736-18.74432-45.25568l267.88864-267.88864c24.88832-24.88832 65.61792-24.88832 90.51136 0l267.88864 267.88864c24.88832 24.88832 16.45568 45.25568-18.74432 45.25568h-588.8z"  horiz-adv-x="1024" />

    
    <glyph glyph-name="user" unicode="&#59936;" d="M511.67744 320c123.53536 0 223.67744 101.87776 223.67744 227.55328V604.44672c0 125.67552-100.14208 227.55328-223.67744 227.55328-123.53024 0-223.67744-101.87776-223.67744-227.55328v-56.88832c0-125.68064 100.1472-227.5584 223.67744-227.5584zM630.85568 256h-237.7216c-164.07552 0-297.1392-139.15136-297.1392-310.66624v-9.33376h832v9.33376C928 116.84864000000005 794.93632 256 630.85568 256z"  horiz-adv-x="1024" />

    
    <glyph glyph-name="angle" unicode="&#59937;" d="M704 385.184L384 705.216l-64-64.032L577.152 384 320 126.816l64-64 320 320.032-1.152 1.152z"  horiz-adv-x="1024" />

    
    <glyph glyph-name="company" unicode="&#59933;" d="M975.05006933 447.881216l-177.64625066 315.97090133c-19.759104 35.13275733-67.9936 63.881216-107.200512 63.881216H333.79669333c-39.206912 0-87.44686933-28.74845867-107.19505066-63.881216L48.94993067 447.881216c-19.75364267-35.13275733-19.75364267-92.62421333 0-127.75697067l177.651712-315.97636266c19.75364267-35.13821867 67.9936-63.87575467 107.19505066-63.87575467h356.40661334c39.206912 0 87.441408 28.74299733 107.200512 63.87575467l177.64625066 315.97636266c19.75364267 35.127296 19.75364267 92.62421333 0 127.75697067zM512 247.46666667c-75.40462933 0-136.53333333 61.128704-136.53333333 136.53333333s61.128704 136.53333333 136.53333333 136.53333333 136.53333333-61.128704 136.53333333-136.53333333-61.128704-136.53333333-136.53333333-136.53333333z"  horiz-adv-x="1024" />

    
    <glyph glyph-name="dashboard" unicode="&#59934;" d="M896 832H128c-35.34336 0-64-28.65664-64-64v-640c0-35.34336 28.65664-64 64-64h768c35.34336 0 64 28.65664 64 64V768c0 35.34848-28.65664 64-64 64z m-73.37472-278.62528l-224-224a32 32 0 0 0-43.1104-1.96096L388.096 466.92864l-139.51488-167.41376a31.93856 31.93856 0 0 0-24.6016-11.51488 32 32 0 0 0-24.56576 52.48512l160 192a31.99488 31.99488 0 0 0 45.06624 4.096l169.5488-141.29152 203.3408 203.33568a32 32 0 0 0 45.25568-45.25056zM800 0H224a32 32 0 1 1 0-64h576a32 32 0 1 1 0 64z"  horiz-adv-x="1024" />

    
    <glyph glyph-name="wecard" unicode="&#59935;" d="M868.57216 832H155.42784c-50.41152 0-91.42784-41.01632-91.42784-91.42784v-713.14432c0-50.41664 41.01632-91.42784 91.42784-91.42784h713.14432c50.41664 0 91.42784 41.01632 91.42784 91.42784V740.5721599999999c0 50.41152-41.01632 91.42784-91.42784 91.42784zM512 672c88.36608 0 160-71.63392 160-160s-71.63392-160-160-160S352 423.63392 352 512 423.63392 672 512 672zM704 128h-384c-35.33824 0-64 28.66176-64 64S284.66176 256 320 256h384c35.33824 0 64-28.66176 64-64s-28.66176-64-64-64z"  horiz-adv-x="1024" />

    


  </font>
</defs>
</svg>
